<svg width="1818" height="1819" xmlns="http://www.w3.org/2000/svg" xmlns:xlink="http://www.w3.org/1999/xlink" xml:space="preserve" overflow="hidden"><defs><clipPath id="clip0"><rect x="1291" y="328" width="1818" height="1819"/></clipPath><clipPath id="clip1"><rect x="1666" y="1662" width="1068" height="357"/></clipPath><clipPath id="clip2"><rect x="1666" y="1662" width="1068" height="357"/></clipPath><clipPath id="clip3"><rect x="1666" y="1662" width="1068" height="357"/></clipPath><clipPath id="clip4"><rect x="1860" y="456" width="680" height="1087"/></clipPath><clipPath id="clip5"><rect x="1860" y="456" width="680" height="1087"/></clipPath><clipPath id="clip6"><rect x="1860" y="456" width="680" height="1087"/></clipPath></defs><g clip-path="url(#clip0)" transform="translate(-1291 -328)"><rect x="1291" y="328" width="1818" height="1819" fill="#2D2D2D"/><g clip-path="url(#clip1)"><g clip-path="url(#clip2)"><g clip-path="url(#clip3)"><text fill="#F2F2F2" font-family="Lexend Deca,Lexend Deca_MSFontService,sans-serif" font-weight="400" font-size="100" transform="matrix(3.23734 0 0 3.23735 1666 1938)">R</text><text fill="#F2F2F2" font-family="Lexend Deca,Lexend Deca_MSFontService,sans-serif" font-weight="400" font-size="100" transform="matrix(3.23734 0 0 3.23735 1887.76 1938)">OM</text><text fill="#F2F2F2" font-family="Lexend Deca,Lexend Deca_MSFontService,sans-serif" font-weight="400" font-size="100" transform="matrix(3.23734 0 0 3.23735 2418.68 1938)">.</text><text fill="#2FB7BD" font-family="Lexend Deca,Lexend Deca_MSFontService,sans-serif" font-weight="400" font-size="100" transform="matrix(3.23734 0 0 3.23735 2494.44 1938)">U</text></g></g></g><g clip-path="url(#clip4)"><g clip-path="url(#clip5)"><g clip-path="url(#clip6)"><path d="M340.076 40.9691 340.076 1043.89" stroke="#30B7BE" stroke-width="81.9382" stroke-linecap="round" stroke-linejoin="round" fill="none" transform="matrix(1.00035 0 0 1 1860 457.069)"/><path d="M630.596 491.76C612.701 389.305 540.268 302.581 445.547 264.89L445.875 180.526" stroke="#2F7FC0" stroke-width="98.3258" stroke-linecap="round" stroke-linejoin="round" fill="none" transform="matrix(1.00035 0 0 1 1860 457.069)"/><path d="M234.409 180.657 234.212 264.89C139.492 302.581 67.0582 389.305 49.1629 491.76" stroke="#D56060" stroke-width="98.3258" stroke-linecap="round" stroke-linejoin="round" fill="none" transform="matrix(1.00035 0 0 1 1860 457.069)"/><path d="M630.596 491.76C612.701 389.305 540.268 302.581 445.547 264.89L445.875 180.526" stroke="#D3D3D3" stroke-width="98.3258" stroke-linecap="round" stroke-linejoin="round" fill="none" transform="matrix(1.00035 0 0 1 1860 457.069)"/><path d="M234.409 180.657 234.212 264.89C139.492 302.581 67.0582 389.305 49.1629 491.76" stroke="#D3D3D3" stroke-width="98.3258" stroke-linecap="round" stroke-linejoin="round" fill="none" transform="matrix(1.00035 0 0 1 1860 457.069)"/><path d="M630.596 594.412C612.701 696.868 540.268 783.591 445.547 821.283L445.875 905.646" stroke="#D3D3D3" stroke-width="98.3258" stroke-linecap="round" stroke-linejoin="round" fill="none" transform="matrix(1.00035 0 0 1 1860 457.069)"/><path d="M234.409 905.515 234.212 821.283C139.492 783.591 67.0582 696.868 49.1629 594.412" stroke="#D3D3D3" stroke-width="98.3258" stroke-linecap="round" stroke-linejoin="round" fill="none" transform="matrix(1.00035 0 0 1 1860 457.069)"/></g></g></g></g></svg>