<svg width="916" height="885" xmlns="http://www.w3.org/2000/svg" xmlns:xlink="http://www.w3.org/1999/xlink" xml:space="preserve" overflow="hidden"><defs><clipPath id="clip0"><rect x="898" y="803" width="916" height="885"/></clipPath></defs><g clip-path="url(#clip0)" transform="translate(-898 -803)"><path d="M1382.27 1060.84C1382.27 1060.84 1458.18 1049.84 1475.58 1090.86 1492.97 1131.9 1500.8 1157.23 1464.27 1178.17 1427.74 1199.13 1209.45 1289.93 1209.45 1289.93 1209.45 1289.93 1045.08 1357.16 942.458 1220.08 839.835 1083.01 951.155 980.858 951.155 980.858 951.155 980.858 987.682 942.456 1078.13 906.654 1168.58 870.865 1321.64 815.856 1321.64 815.856 1321.64 815.856 1464.27 784.431 1568.63 823.709 1672.99 863 1740.83 945.944 1740.83 945.944 1740.83 945.944 1817.36 1029.75 1813.88 1134.52 1810.32 1241.69 1781.7 1261.12 1781.7 1261.12 1781.7 1261.12 1726.04 1380.73 1591.24 1430.48 1456.44 1480.25 1423.39 1499.46 1423.39 1499.46L1482.53 1592.87C1482.53 1592.87 1516.45 1661.85 1446.88 1682.81 1377.3 1703.75 1343.38 1654 1343.38 1654L1200.75 1441.84 1558.2 1283.81C1558.2 1283.81 1672.99 1203.5 1661.69 1121.43 1650.82 1042.54 1608.64 989.599 1552.11 958.161 1486.01 917.133 1427.74 927.613 1427.74 927.613 1427.74 927.613 1364.26 937.216 1289.46 968.641 1205.97 1000.07 1100.74 1047.22 1100.74 1047.22 1100.74 1047.22 1037.25 1067.29 1055.52 1117.94 1073.78 1168.57 1128.57 1164.2 1128.57 1164.2Z" fill="#F2F2F2" fill-rule="evenodd"/></g></svg>