<svg width="220" height="121" xmlns="http://www.w3.org/2000/svg" xmlns:xlink="http://www.w3.org/1999/xlink" xml:space="preserve" overflow="hidden"><defs><clipPath id="clip0"><rect x="1826" y="1181" width="220" height="121"/></clipPath></defs><g clip-path="url(#clip0)" transform="translate(-1826 -1181)"><path d="M2001.4 1290.16C2007.48 1286.58 2012.72 1281.72 2016.75 1275.92L2023.81 1275.92C2027.4 1275.92 2030.31 1273.01 2030.31 1269.42 2030.31 1265.82 2027.4 1262.91 2023.81 1262.91L2023.25 1262.91C2024.64 1258.74 2025.47 1254.4 2025.72 1250.01L2032.67 1250.01C2036.26 1250.01 2039.17 1247.1 2039.17 1243.51 2039.17 1239.91 2036.26 1237 2032.67 1237L2025.51 1237C2025.05 1232.58 2023.99 1228.24 2022.37 1224.11L2023.72 1224.11C2027.31 1224.11 2030.22 1221.19 2030.22 1217.6 2030.22 1214.01 2027.31 1211.1 2023.72 1211.1L2014.98 1211.1C2005.52 1199.28 1991.21 1192.39 1976.09 1192.37L1964.99 1192.37C1958.2 1192.35 1951.48 1193.77 1945.26 1196.51L1956.93 1196.51C1984 1196.52 2005.94 1218.47 2005.93 1245.55 2005.93 1270.24 1987.58 1291.08 1963.11 1294.19 1961.65 1294.31 1960.19 1294.42 1958.63 1294.42L1908.15 1294.42C1916.33 1289.92 1923.35 1283.59 1928.66 1275.91 1929.03 1276.01 1929.41 1276.04 1929.79 1276.03L1973.71 1276.03C1977.3 1276.03 1980.21 1273.11 1980.21 1269.52 1980.21 1265.93 1977.3 1263.02 1973.71 1263.02L1935.5 1263.02C1937.07 1258.85 1938.2 1254.52 1938.86 1250.12L1989.18 1250.12C1992.77 1250.12 1995.68 1247.21 1995.68 1243.62 1995.68 1240.02 1992.77 1237.11 1989.18 1237.11L1939.42 1237.11C1939.07 1232.73 1938.24 1228.41 1936.96 1224.21L1973.94 1224.21C1977.53 1224.21 1980.44 1221.3 1980.44 1217.71 1980.44 1214.11 1977.53 1211.2 1973.94 1211.2L1931.24 1211.2C1920.45 1192.96 1900.86 1181.76 1879.67 1181.72L1875.41 1181.72C1856.11 1181.78 1838.01 1191.13 1826.77 1206.84 1846.08 1184.5 1879.84 1182.05 1902.17 1201.37 1909.07 1207.34 1914.33 1214.98 1917.44 1223.55L1890.33 1223.55C1880.17 1210.85 1861.63 1208.79 1848.94 1218.96 1836.24 1229.13 1834.18 1247.68 1844.35 1260.39 1854.51 1273.09 1873.05 1275.15 1885.75 1264.98 1887.68 1263.43 1889.41 1261.65 1890.89 1259.66L1862.86 1259.66C1862.85 1246.73 1873.33 1236.23 1886.26 1236.23 1886.27 1236.23 1886.28 1236.23 1886.28 1236.23L1920.47 1236.23C1920.69 1238.13 1920.81 1240.03 1920.81 1241.95 1920.81 1271.5 1896.86 1295.45 1867.33 1295.44 1852.33 1295.44 1838.02 1289.13 1827.9 1278.06 1839.22 1292.95 1856.83 1301.7 1875.53 1301.72L1963.4 1301.72C2008.9 1301.72 2045.77 1299.03 2045.77 1295.54 2045.78 1293.31 2027.73 1291.19 2001.4 1290.16Z" fill="#F78557" fill-rule="evenodd"/></g></svg>