<svg width="872" height="1205" xmlns="http://www.w3.org/2000/svg" xmlns:xlink="http://www.w3.org/1999/xlink" xml:space="preserve" overflow="hidden"><defs><clipPath id="clip0"><rect x="1763" y="522" width="872" height="1205"/></clipPath></defs><g clip-path="url(#clip0)" transform="translate(-1763 -522)"><path d="M2622 1102.5C2622 1341.26 2432.67 1535 2199 1535 1965.33 1535 1776 1341.26 1776 1102.5 1776 863.738 1965.33 670 2199 670 2432.67 670 2622 863.738 2622 1102.5" fill="#D33833" fill-rule="evenodd"/><path d="M1793.21 1210C1793.21 1210 1762.46 758.478 2179 745.5L2149.96 697 1924.09 772.823 1859.5 846.938 1803.12 954.866 1771 1080.56 1780.57 1164.57" fill="#EF3D3A" fill-rule="evenodd"/><path d="M1909.36 808.012C1835.33 884.051 1789.27 988.735 1789.27 1104.67L1789.27 1104.67C1789.27 1220.61 1835.33 1325.29 1909.36 1401.33L1909.36 1401.33C1983.73 1477.37 2085.74 1524.09 2199 1524.09L2199 1524.09C2312.26 1524.09 2414.27 1477.37 2488.64 1401.33L2488.64 1401.33C2562.67 1325.29 2608.73 1220.61 2608.73 1104.67L2608.73 1104.67C2608.73 988.735 2562.67 884.051 2488.64 808.012L2488.64 808.012C2414.27 732.313 2312.26 685.256 2199 685.256L2199 685.256C2086.08 685.256 1983.73 731.971 1909.36 808.012L1909.36 808.012 1909.36 808.012ZM1890.59 1419.4C1811.79 1338.93 1763 1227.43 1763 1104.67L1763 1104.67C1763 981.916 1811.79 870.412 1890.59 789.598L1890.59 789.598C1969.4 709.125 2078.57 659 2199 659L2199 659C2319.43 659 2428.6 709.125 2507.41 789.598L2507.41 789.598C2586.21 870.071 2635 981.573 2635 1104.67L2635 1104.67C2635 1227.43 2586.21 1338.93 2507.41 1419.4L2507.41 1419.4C2428.6 1500.22 2319.43 1550 2199 1550L2199 1550C2078.57 1550 1969.4 1500.22 1890.59 1419.4L1890.59 1419.4 1890.59 1419.4Z" fill="#231F20" fill-rule="evenodd"/><path d="M2377.42 1105.21 2312.94 1114.75 2225.95 1124.64 2169.66 1126 2114.73 1124.3 2072.77 1111.34 2035.58 1071.12 2006.58 988.963 2000.1 971.24 1961.55 958.285 1939.03 921.13 1923 867.953 1940.74 821.25 1982.7 806.593 2016.48 822.614 2032.51 858.066 2051.96 854.998 2058.44 846.817 2051.96 809.661 2050.25 762.96 2059.8 698.533 2059.46 661.718 2088.8 614.676 2140.31 577.52 2230.38 539 2330.34 553.658 2417.33 616.38 2457.59 680.807 2483.52 727.508 2490 843.408 2470.55 943.285 2435.08 1031.92 2401.64 1079.3" fill="#F0D6B7" fill-rule="evenodd"/><path d="M2322.61 1383.35 2092.41 1392.9 2092.41 1431.41 2111.85 1566.75 2102.29 1578 1941.32 1523.12 1930.07 1503.69 1914.04 1321.65 1876.18 1212.56 1868 1186.65 1996.91 1098.02 2037.16 1082 2072.62 1125.64 2103.32 1152.91 2138.79 1164.15 2154.81 1168.93 2174.26 1252.79 2188.92 1270.51 2226.09 1257.56 2200.17 1307.67 2340 1373.8 2322.61 1383.35" fill="#335061" fill-rule="evenodd"/><path d="M1940.48 821.234 1982.43 806.596 2016.2 822.596 2032.23 858 2051.67 854.936 2056.44 835.532 2046.89 798.425 2056.44 709.915 2048.26 661.574 2077.25 627.872 2140 578.171 2122.27 554 2033.59 597.575 1996.41 626.511 1975.61 671.447 1943.55 715.021 1934 766.426 1940.48 821.234" fill="#6D6B6D" fill-rule="evenodd"/><path d="M2006.34 669.948C2006.34 669.948 2030.67 610.585 2127.63 581.752 2224.59 552.919 2132.42 561.06 2132.42 561.06L2027.24 601.087 1986.82 641.114 1969 673 2006.34 669.948" fill="#DCD9D8" fill-rule="evenodd"/><path d="M1958.14 810.718C1958.14 810.718 1924.48 697.555 2053 681.487L2048.24 662 1959.84 682.855 1934 766.957 1940.46 822 1958.14 810.718" fill="#DCD9D8" fill-rule="evenodd"/><path d="M2010 960.476 2031.02 940C2031.02 940 2040.52 941.025 2042.22 952.284 2043.91 963.547 2048.66 1065.23 2117.5 1119.83 2123.94 1124.95 2066.29 1111.64 2066.29 1111.64L2015.09 1031.11" fill="#F7E4CD" fill-rule="evenodd"/><path d="M2306.06 929C2306.06 929 2309.76 880.47 2322.88 884.205 2336 887.937 2336 901.173 2336 901.173 2336 901.173 2304.38 921.534 2306.06 929" fill="#F7E4CD" fill-rule="evenodd"/><path d="M2440.21 751C2440.21 751 2413.53 756.356 2411.13 779.454 2408.73 802.552 2440.21 784.141 2445 782.467" fill="#F7E4CD" fill-rule="evenodd"/><path d="M2245.13 752C2245.13 752 2210 756.859 2210 779.762 2210 802.667 2249.86 800.931 2261 791.214" fill="#F7E4CD" fill-rule="evenodd"/><path d="M2026 856.972C2026 856.972 1964.78 819.6 1958.28 855.257 1951.78 890.915 1937.42 916.63 1967.86 954L1946.99 947.487 1927.5 897.429 1921 848.743 1958.28 810 2000.35 813.086 2024.63 832.628 2026 856.972" fill="#F7E4CD" fill-rule="evenodd"/><path d="M2054.74 755C2054.74 755 2082.02 613.342 2220.52 586.101 2334.45 563.626 2394.49 590.868 2417 616.748 2417 616.748 2315.35 496.203 2218.81 532.979 2122.28 570.096 2051.32 637.52 2053.03 680.766 2055.76 755 2054.74 755 2054.74 755" fill="#F7E4CD" fill-rule="evenodd"/><path d="M2428.62 633.01C2428.62 633.01 2381.71 631.311 2380 673.092 2380 673.092 2380 679.547 2383.08 686 2383.08 686 2420.4 644.219 2443 666.638" fill="#F7E4CD" fill-rule="evenodd"/><path d="M2224 690.696C2224 690.696 2215.87 626.313 2161.63 663.641 2126.38 687.957 2129.77 721.861 2135.87 728.367 2142.31 734.874 2140.62 747.888 2145.36 738.984 2150.11 730.08 2148.75 700.97 2166.38 692.751 2183.66 684.532 2212.82 675.628 2224 690.696" fill="#F7E4CD" fill-rule="evenodd"/><path d="M2073 1126.06 1921.3 1193.64C1921.3 1193.64 1984.17 1443.51 1952.05 1521L1929.5 1512.81 1927.79 1417.57 1885.77 1237.34 1868 1187.5 2026.19 1081 2073 1126.06" fill="#49728B" fill-rule="evenodd"/><path d="M2088.25 1264 2110 1290.31 2110 1387 2084.11 1387C2084.11 1387 2081 1319.35 2081 1311.15 2081 1302.95 2084.11 1273.91 2084.11 1273.91" fill="#49728B" fill-rule="evenodd"/><path d="M2089 1401 2016 1404.08 2036.91 1418.79 2088.66 1427" fill="#49728B" fill-rule="evenodd"/><path d="M2337 1385.7 2396.4 1384 2411 1531.82 2350.24 1540 2337 1385.7" fill="#335061" fill-rule="evenodd"/><path d="M2353 1385 2442.88 1380.23C2442.88 1380.23 2480 1286.8 2480 1282.02 2480 1277.25 2512 1146.66 2512 1146.66L2439.48 1070.96 2424.84 1058 2386.37 1096.53 2386.37 1246.22 2353 1385" fill="#335061" fill-rule="evenodd"/><path d="M2392.87 1374 2337 1385.37 2345.13 1430.84C2365.78 1440.49 2401 1414.65 2401 1414.65" fill="#49728B" fill-rule="evenodd"/><path d="M2395 1092.33 2507.93 1176 2511 1137.56 2425.71 1059 2395 1092.33" fill="#49728B" fill-rule="evenodd"/><path d="M2144.86 1702.95 2111.44 1567.37 2094.73 1467.3 2092 1393.19 2243.08 1385 2336.86 1385 2328.34 1554.39 2343 1685.19 2341.3 1709.44 2218.86 1719 2144.86 1702.95" fill="#FFFFFF" fill-rule="evenodd"/><path d="M2315.71 1383.55C2315.71 1383.55 2307.55 1551.05 2331.69 1670.45 2331.69 1670.45 2283.4 1701.15 2213 1709L2348.02 1704.22 2364 1694.67 2344.62 1430.63 2339.51 1374" fill="#DCD9D8" fill-rule="evenodd"/><path d="M2413.09 1519 2475.97 1501.27 2595.23 1494.79 2613 1439.9 2580.88 1344.77 2543.63 1340 2492.03 1356.03 2442.82 1380.23 2416.51 1375.46 2396 1383.64" fill="#FFFFFF" fill-rule="evenodd"/><path d="M2412 1486.58C2412 1486.58 2454.06 1467.14 2460.55 1468.85L2442.77 1380.19 2463.63 1372C2463.63 1372 2478.33 1455.89 2478.33 1465.44 2478.33 1465.44 2568.6 1470.21 2576.81 1470.21 2576.81 1470.21 2596.3 1433.04 2591.51 1394.51L2609.29 1446 2611 1474.99 2585.01 1513.52 2555.95 1520 2507.4 1518.3 2491.33 1497.49 2434.91 1505.68 2417.13 1512.16" fill="#DCD9D8" fill-rule="evenodd"/><path d="M2348.58 1372 2313.14 1282.37 2276 1229.41C2276 1229.41 2284.18 1207 2295.42 1207L2332.56 1207 2368 1219.9 2364.93 1279.32 2348.58 1372" fill="#FFFFFF" fill-rule="evenodd"/><path d="M2356.12 1341.65C2356.12 1341.65 2311.14 1254.78 2311.14 1241.83 2311.14 1241.83 2319.32 1222.42 2330.56 1227.19 2341.81 1231.96 2366 1244.9 2366 1244.9L2366 1214.24 2311.14 1203 2274 1207.77 2336.7 1356.3 2349.65 1358" fill="#DCD9D8" fill-rule="evenodd"/><path d="M2159 1129.69 2114.13 1124.93 2072 1112 2072 1126.63 2092.55 1149.08 2157.29 1178" fill="#FFFFFF" fill-rule="evenodd"/><path d="M2087.42 1134C2087.42 1134 2137 1155.12 2153.3 1150.27L2155 1170 2110.17 1160.31 2083 1140.58 2087.42 1134" fill="#DCD9D8" fill-rule="evenodd"/><path d="M2413.38 1212C2386.01 1211.32 2361.04 1207.92 2339.5 1201.8 2340.87 1192.96 2338.13 1184.45 2340.52 1177.99 2346.68 1173.57 2356.6 1173.57 2365.83 1172.56 2357.97 1168.81 2346.68 1167.11 2337.79 1169.5 2337.45 1163.38 2334.71 1159.63 2333 1154.87 2348.39 1149.43 2384.65 1113.73 2405.17 1125.29 2415.09 1131.07 2419.19 1163.03 2419.87 1179.02 2420.56 1191.94 2418.5 1204.86 2413.38 1212" fill="#D33833" fill-rule="evenodd"/><path d="M2413.88 1212.5C2386.51 1211.82 2361.54 1208.42 2340 1202.3 2341.37 1193.46 2338.63 1184.95 2341.02 1178.49 2347.18 1174.07 2357.1 1174.07 2366.33 1173.06 2358.47 1169.31 2347.18 1167.61 2338.29 1170 2337.95 1163.88 2335.21 1160.13 2333.5 1155.37 2348.89 1149.93 2385.15 1114.23 2405.66 1125.79 2415.58 1131.57 2419.69 1163.53 2420.37 1179.52 2421.06 1192.44 2419 1205.36 2413.88 1212.5L2413.88 1212.5Z" stroke="#D33833" stroke-width="6.875" stroke-miterlimit="8" fill-rule="evenodd"/><path d="M2282.95 1167.85C2282.95 1169.89 2282.95 1171.93 2282.6 1173.97 2274.06 1179.41 2260.38 1179.41 2250.8 1184.18 2264.48 1184.85 2275.43 1188.26 2285 1192.68 2284.66 1197.78 2284.66 1203.23 2284.32 1208.33 2268.58 1218.87 2254.22 1234.86 2235.76 1245.07 2226.87 1249.83 2196.43 1262.08 2187.2 1259.7 2182.07 1258.33 2181.38 1251.87 2179.33 1245.75 2174.89 1232.82 2164.63 1211.73 2163.6 1192 2162.57 1167.17 2159.84 1125.33 2186.85 1130.43 2208.74 1134.51 2234.04 1144.38 2250.8 1153.56 2261.4 1159.68 2267.22 1166.49 2282.95 1167.85" fill="#D33833" fill-rule="evenodd"/><path d="M2283.45 1168.35C2283.45 1170.39 2283.45 1172.43 2283.1 1174.47 2274.56 1179.91 2260.88 1179.91 2251.3 1184.68 2264.98 1185.36 2275.93 1188.76 2285.5 1193.18 2285.16 1198.28 2285.16 1203.73 2284.82 1208.83 2269.08 1219.37 2254.72 1235.36 2236.26 1245.57 2227.37 1250.33 2196.93 1262.58 2187.7 1260.2 2182.57 1258.83 2181.88 1252.37 2179.83 1246.25 2175.39 1233.32 2165.13 1212.23 2164.1 1192.5 2163.07 1167.67 2160.34 1125.83 2187.35 1130.93 2209.24 1135.01 2234.54 1144.88 2251.3 1154.06 2261.9 1160.18 2267.72 1166.99 2283.45 1168.35L2283.45 1168.35Z" stroke="#D33833" stroke-width="6.875" stroke-miterlimit="8" fill-rule="evenodd"/><path d="M2298.36 1197.43C2295.95 1183.51 2293.19 1179.68 2294.22 1167.51 2331.11 1142.81 2337.66 1209.95 2298.36 1197.43" fill="#D33833" fill-rule="evenodd"/><path d="M2298.86 1197.93C2296.45 1184.01 2293.69 1180.18 2294.72 1168.01 2331.61 1143.31 2338.16 1210.45 2298.86 1197.93L2298.86 1197.93Z" stroke="#D33833" stroke-width="6.875" stroke-miterlimit="8" fill-rule="evenodd"/><path d="M2351.14 1208C2351.14 1208 2339.9 1191.95 2348.08 1187.16 2356.25 1182.38 2364.09 1187.16 2368.86 1178.97 2373.63 1170.77 2368.86 1165.99 2370.56 1156.43 2372.26 1146.86 2380.1 1145.16 2388.28 1143.45 2396.45 1141.74 2418.93 1138.66 2422 1146.52L2412.46 1117.49 2393.04 1111 2332.07 1146.52 2329 1164.28 2329 1199.8" fill="#EF3D3A" fill-rule="evenodd"/><path d="M2181.88 1261C2179.85 1235.79 2177.81 1210.92 2175.77 1185.7 2172.38 1148.23 2184.59 1154.7 2217.16 1154.7 2222.25 1154.7 2247.69 1160.49 2249.39 1164.24 2258.21 1182.3 2234.8 1178.21 2259.57 1191.84 2280.26 1203.08 2317.24 1185.02 2308.76 1159.47 2304.01 1153.68 2284.33 1157.77 2277.21 1154.02 2264.66 1147.55 2252.1 1141.07 2239.55 1134.6 2223.61 1126.42 2186.97 1114.16 2170.01 1125.74 2126.92 1155.04 2172.72 1228.64 2187.99 1259.3" fill="#EF3D3A" fill-rule="evenodd"/><path d="M2224.63 690.949C2180.21 680.725 2158.18 709.352 2144.75 739 2132.7 736.274 2137.52 719.916 2140.62 711.737 2148.54 690.267 2180.56 661.3 2206.73 665.39 2217.74 666.753 2232.89 676.976 2224.63 690.949" fill="#231F20" fill-rule="evenodd"/><path d="M2437.79 740 2439.84 740C2449.77 760.515 2458.33 782.398 2471 800.861 2462.44 820.692 2407.32 837.788 2408.01 802.912 2419.99 797.784 2440.53 801.887 2451.14 795.049 2444.98 778.295 2436.42 763.934 2437.79 740" fill="#231F20" fill-rule="evenodd"/><path d="M2246.64 741C2256.17 758.369 2259.23 776.418 2272.51 789.359 2278.64 795.149 2290.21 802.301 2284.43 818.648 2283.06 822.394 2273.19 830.908 2267.4 832.611 2246.64 838.741 2197.95 833.973 2214.29 807.75 2231.66 808.431 2254.81 818.988 2267.75 806.388 2257.87 790.722 2240.17 759.391 2246.64 741" fill="#231F20" fill-rule="evenodd"/><path d="M2429.98 916.106C2398.62 936.214 2363.52 958.369 2311.72 953.254 2300.82 943.712 2296.39 922.241 2307.29 908.267 2312.74 917.81 2309.34 935.534 2325.01 938.258 2354.32 943.372 2388.4 920.193 2409.53 912.355 2422.48 890.203 2408.51 882.364 2396.58 868.048 2372.38 839.077 2340.35 802.949 2341.37 759.664 2351.26 752.506 2351.94 770.57 2353.3 773.638 2365.91 802.949 2397.6 840.781 2420.43 866.004 2426.23 872.138 2435.43 878.273 2436.45 882.364 2439.52 893.95 2428.62 908.267 2429.98 916.106" fill="#231F20" fill-rule="evenodd"/><path d="M2014.78 895.359C2004.88 889.51 2002.49 864.739 1990.88 864.051 1974.16 863.018 1977.23 896.393 1977.23 916 1965.97 905.681 1963.92 873.338 1972.11 856.825 1962.56 852.009 1958.46 861.986 1953 865.426 1960.17 815.54 2025.7 842.375 2014.78 895.359" fill="#231F20" fill-rule="evenodd"/><path d="M2450 937C2435.42 965.115 2414.74 995.97 2372.03 997 2371.01 988.086 2370.34 974.03 2372.03 968.543 2404.91 965.115 2425.25 948.316 2450 937" fill="#231F20" fill-rule="evenodd"/><path d="M2244 955C2271.21 969.479 2321.55 971.202 2358.96 970.166 2361 978.441 2361 988.779 2361 998.776 2313.05 1000.84 2256.58 988.779 2244 955" fill="#231F20" fill-rule="evenodd"/><path d="M2238.66 982C2257.79 1029.41 2323.02 1024 2378 1022.64 2375.61 1028.74 2370.49 1036.19 2363.66 1038.56 2345.9 1045.67 2297.4 1051.09 2272.81 1038.22 2257.44 1030.09 2247.2 1011.47 2238.66 1000.63 2234.9 995.547 2214.41 982.338 2238.66 982" fill="#231F20" fill-rule="evenodd"/><path d="M2428 1244.8C2405.81 1283.12 2384.29 1322.47 2358 1356 2368.93 1323.5 2373.71 1268.75 2375.42 1227.01 2398.64 1216.06 2418.44 1229.4 2428 1244.8" fill="#81B0C4" fill-rule="evenodd"/><path d="M2548 1382C2523.05 1387.17 2505.61 1411.64 2481 1409.91 2494.67 1390.96 2517.92 1382.69 2548 1382" fill="#231F20" fill-rule="evenodd"/><path d="M2558 1420.85C2537.79 1422.87 2514.21 1426.22 2494 1424.54 2503.77 1409.77 2540.82 1415.14 2558 1420.85" fill="#231F20" fill-rule="evenodd"/><path d="M2566 1454.88C2543.15 1455.22 2514.83 1454.88 2493 1453.22 2505.96 1439.6 2551.33 1448.24 2566 1454.88" fill="#231F20" fill-rule="evenodd"/><path d="M2384.54 1546.4C2387.96 1575.27 2399.25 1604.48 2397.89 1636.1 2385.23 1640.22 2378.04 1644 2360.94 1644 2359.91 1617.2 2356.15 1575.96 2357.18 1550.19 2365.38 1550.87 2377.7 1544.34 2384.54 1546.4" fill="#DCD9D8" fill-rule="evenodd"/><path d="M2348 1124C2336.4 1131.45 2326.85 1140.58 2315.6 1148.71 2291.04 1150.06 2277.73 1147.02 2260 1133.14 2260.34 1132.12 2262.05 1132.46 2262.05 1131.11 2288.31 1142.62 2321.73 1126.37 2348 1124" fill="#F0D6B7" fill-rule="evenodd"/><path d="M2211 1302.46C2218.16 1271.42 2246.45 1255.05 2272.01 1238 2298.26 1271.42 2314.28 1314.39 2332 1356 2290.08 1343.38 2247.47 1323.26 2211 1302.46" fill="#81B0C4" fill-rule="evenodd"/><path d="M2358.01 1550.65C2356.99 1576.22 2360.4 1616.79 2361.77 1643.72 2378.83 1643.72 2385.99 1639.98 2398.61 1635.88 2399.98 1604.51 2388.72 1575.53 2385.31 1546.89 2378.48 1544.51 2366.2 1550.99 2358.01 1550.65L2358.01 1550.65ZM2094.64 1406.09C2105.9 1508.71 2121.93 1594.63 2151.61 1685.66 2217.46 1705.78 2296.6 1707.48 2354.94 1689.41 2344.37 1638.27 2348.8 1575.88 2342.66 1520.98 2337.89 1479.73 2340.27 1438.47 2333.79 1396.54 2263.17 1381.88 2163.55 1393.13 2094.64 1406.09L2094.64 1406.09ZM2350.51 1397.22C2349.82 1441.2 2352.55 1484.85 2355.97 1528.83 2373.03 1526.44 2384.28 1524.74 2399.98 1520.98 2394.86 1478.7 2395.54 1430.63 2384.97 1393.13 2373.03 1393.47 2362.45 1393.13 2350.51 1397.22L2350.51 1397.22ZM2436.14 1390.06C2427.95 1388.36 2418.74 1390.06 2411.24 1390.06 2414.99 1425.86 2423.52 1465.41 2426.59 1503.26 2438.53 1503.6 2445.01 1497.8 2454.91 1496.09 2455.59 1463.02 2452.18 1417.34 2436.14 1390.06L2436.14 1390.06 2436.14 1390.06ZM2566.12 1508.71C2591.37 1502.57 2607.06 1471.89 2599.9 1440.18 2595.12 1419.04 2586.93 1378.81 2577.72 1365.17 2571.24 1355.28 2553.16 1341.99 2538.49 1351.19 2514.95 1366.19 2473.67 1370.63 2456.61 1388.7 2465.14 1417.34 2467.87 1456.21 2471.28 1492.34 2500.62 1494.05 2536.44 1484.16 2561.01 1494.73 2543.95 1500.19 2522.11 1500.19 2507.44 1508.37 2519.72 1514.17 2547.7 1513.14 2566.12 1508.71L2566.12 1508.71 2566.12 1508.71ZM2332.09 1355.62C2314.35 1314.03 2298.31 1271.07 2272.04 1237.66 2246.45 1254.7 2218.48 1271.07 2210.97 1302.1 2247.82 1322.89 2290.46 1343.01 2332.09 1355.62L2332.09 1355.62ZM2375.76 1227.09C2374.05 1268.68 2369.27 1323.23 2358.35 1355.62 2384.62 1321.87 2406.12 1283 2428.29 1244.82 2418.74 1229.47 2398.95 1216.18 2375.76 1227.09L2375.76 1227.09ZM2326.29 1209.7C2316.39 1208.67 2307.86 1221.29 2294.9 1215.83 2291.83 1219.24 2289.1 1222.66 2286.03 1226.06 2314.69 1260.84 2327.99 1309.94 2350.17 1350.51 2362.11 1311.3 2360.74 1268.68 2363.47 1226.06 2347.1 1226.74 2337.89 1210.72 2326.29 1209.7L2326.29 1209.7ZM2294.56 1167.76C2293.53 1179.69 2296.26 1183.45 2298.65 1197.08 2337.54 1209.36 2331.06 1143.55 2294.56 1167.76L2294.56 1167.76ZM2251.23 1153.44C2234.51 1144.24 2209.27 1134.35 2187.43 1130.26 2160.48 1125.14 2163.21 1167.08 2164.23 1191.97 2165.26 1211.74 2175.49 1232.54 2179.93 1245.84 2181.98 1251.98 2182.66 1258.45 2187.78 1259.82 2196.99 1261.86 2227.69 1249.93 2236.22 1245.16 2254.64 1235.27 2268.97 1219.24 2284.67 1208.33 2285.01 1203.22 2285.01 1197.76 2285.35 1192.65 2275.8 1187.88 2265.22 1184.81 2251.23 1184.13 2260.44 1179.35 2274.43 1179.35 2282.96 1173.9 2282.96 1171.85 2282.96 1169.81 2283.3 1167.76 2267.61 1166.06 2261.81 1159.24 2251.23 1153.44L2251.23 1153.44ZM2090.88 1124.46C2076.9 1138.78 2130.12 1157.87 2146.84 1158.9 2146.84 1150.03 2151.95 1141.51 2150.93 1135.03 2130.8 1131.62 2104.53 1134.01 2090.88 1124.46L2090.88 1124.46ZM2262.83 1130.94C2262.83 1132.3 2261.12 1131.96 2260.78 1132.99 2278.87 1146.96 2292.17 1150.03 2316.39 1148.67 2327.31 1140.83 2337.2 1131.28 2348.8 1123.78 2322.19 1126.17 2288.76 1142.53 2262.83 1130.94L2262.83 1130.94ZM2420.45 1178.67C2419.77 1162.99 2415.67 1130.6 2405.78 1124.8 2385.31 1112.87 2349.14 1149.01 2333.79 1154.47 2335.5 1159.24 2338.23 1162.99 2338.57 1169.12 2347.78 1166.74 2358.7 1168.44 2366.54 1172.19 2357.33 1173.22 2347.44 1173.22 2341.3 1177.65 2339.25 1184.13 2341.98 1192.65 2340.27 1201.52 2361.77 1207.65 2386.67 1210.72 2413.97 1211.74 2419.08 1204.93 2421.13 1191.97 2420.45 1178.67L2420.45 1178.67ZM2067.34 1138.1C2062.91 1135.03 2033.23 1096.5 2029.13 1098.21 1975.57 1119.35 1925.42 1155.83 1880.73 1190.61 1923.37 1282.32 1940.77 1394.49 1943.84 1502.57 1992.63 1525.42 2035.62 1558.49 2102.14 1561.9 2094.3 1507.69 2087.47 1458.93 2083.04 1407.79 2066.32 1400.63 2042.44 1408.13 2026.75 1405.74 2026.75 1386.99 2050.63 1397.56 2052.67 1384.95 2054.04 1375.4 2039.37 1374.72 2044.15 1359.72 2056.43 1364.15 2062.91 1374.03 2075.87 1377.79 2087.81 1351.87 2075.87 1305.84 2077.58 1284.02 2077.92 1279.93 2079.63 1261.52 2088.84 1264.59 2097.03 1267.32 2088.5 1314.03 2089.18 1334.48 2089.86 1353.58 2086.79 1371.65 2094.64 1383.58 2158.78 1374.72 2223.94 1369.26 2293.53 1367.22 2278.18 1360.74 2260.1 1354.6 2240.31 1343.35 2229.4 1337.21 2195.62 1324.6 2192.55 1314.37 2187.43 1298 2205.51 1289.48 2208.58 1275.5 2176.18 1293.23 2170.03 1258.45 2162.19 1234.25 2155.36 1212.09 2151.27 1195.38 2149.57 1182.76 2121.25 1168.44 2091.23 1155.15 2067.34 1138.1L2067.34 1138.1 2067.34 1138.1ZM2392.13 1102.64C2436.82 1081.16 2445.01 1183.45 2427.27 1216.52 2430 1226.4 2439.21 1230.16 2442.96 1239.02 2418.06 1283.68 2390.42 1325.28 2364.84 1369.26 2383.6 1357.33 2410.9 1367.22 2433.07 1358.35 2441.26 1355.28 2447.06 1336.53 2453.2 1321.53 2470.26 1280.62 2488 1228.79 2495.84 1189.92 2497.55 1181.06 2502.67 1161.62 2501.3 1153.78 2499.26 1139.46 2480.15 1128.89 2470.26 1120.37 2452.18 1104 2440.92 1090.02 2421.81 1074.68 2414.65 1085.93 2398.27 1093.43 2392.13 1102.64L2392.13 1102.64 2392.13 1102.64ZM1965.34 706.8C1944.19 730.325 1948.62 773.967 1951.01 805.334 1989.56 781.126 2040.39 807.379 2040.05 848.293 2058.47 847.952 2046.88 825.45 2043.46 810.789 2032.55 763.397 2061.89 712.255 2044.83 668.955 2011.74 671.682 1984.78 684.979 1965.34 706.8L1965.34 706.8 1965.34 706.8ZM2117.49 570.761C2069.39 584.399 2007.64 619.517 1987.85 662.818 2003.21 660.431 2013.78 652.93 2028.79 651.907 2034.59 651.566 2042.1 654.294 2048.58 652.589 2061.54 649.179 2072.8 619.858 2082.7 608.948 2092.25 598.378 2103.85 593.605 2111.7 584.058 2116.81 581.672 2124.32 581.672 2124.66 574.171 2122.61 571.784 2120.22 570.08 2117.49 570.761L2117.49 570.761ZM2368.25 583.718C2318.1 555.419 2233.49 534.28 2180.27 560.874 2137.28 582.354 2079.29 617.812 2059.5 662.477 2077.92 705.777 2054.04 745.327 2052.33 789.309 2051.65 812.835 2063.25 832.951 2064.27 858.522 2057.79 869.093 2038.69 870.113 2025.38 869.433 2020.95 846.93 2013.1 821.699 1989.9 818.972 1957.15 815.221 1932.93 842.497 1931.56 870.797 1929.86 904.21 1957.15 959.442 1996.04 955.693 2011.05 954.329 2014.81 939.327 2031.18 939.327 2040.05 957.057 2017.54 962.51 2015.15 975.124 2014.46 978.537 2016.85 991.151 2018.56 997.288 2025.72 1026.27 2041.42 1064.11 2056.77 1086.28 2076.56 1114.57 2115.11 1118.67 2156.73 1121.39 2164.23 1105.37 2191.53 1106.73 2209.27 1110.82 2187.78 1102.3 2167.99 1081.84 2151.61 1063.77 2132.85 1042.97 2113.74 1020.81 2112.72 993.539 2148.54 1042.97 2177.88 1086.28 2242.7 1108.1 2291.83 1124.46 2349.14 1100.59 2387.01 1074 2402.71 1063.09 2411.92 1045.36 2423.18 1029.68 2464.8 969.671 2484.24 884.435 2480.15 801.583 2478.44 767.488 2478.44 733.394 2466.85 710.55 2454.91 686.684 2414.31 664.863 2390.42 686.684 2385.99 663.158 2410.21 648.839 2438.53 657.362 2418.4 631.109 2397.25 600.083 2368.25 583.718L2368.25 583.718 2368.25 583.718ZM2461.73 1354.6C2500.96 1335.17 2573.97 1302.44 2598.19 1354.6 2607.4 1374.03 2617.98 1406.43 2622.41 1426.54 2628.9 1454.5 2615.25 1513.83 2586.25 1523.03 2560.66 1531.21 2530.98 1530.87 2500.28 1524.74 2496.53 1521.67 2492.77 1516.55 2489.7 1511.1 2467.87 1510.41 2447.06 1512.12 2430 1521.33 2431.7 1537.69 2420.79 1540.08 2410.21 1543.49 2402.71 1573.83 2425.56 1613.38 2420.11 1640.66 2416.35 1660.43 2392.13 1663.5 2374.39 1666.91 2373.71 1677.82 2375.07 1687.03 2376.44 1696.23 2372.34 1711.23 2354.26 1719.76 2336.86 1721.8 2279.89 1728.62 2193.58 1731.69 2138.99 1711.91 2123.63 1674.41 2111.7 1629.07 2099.07 1586.45 2045.85 1592.24 2002.52 1563.6 1961.93 1544.51 1947.94 1538.03 1928.49 1534.28 1923.03 1523.03 1917.92 1512.12 1919.96 1491.32 1918.6 1471.89 1915.53 1421.77 1912.46 1373.35 1899.49 1322.21 1893.69 1299.03 1883.12 1278.91 1875.95 1256.75 1869.13 1236.29 1857.53 1210.72 1854.46 1190.26 1850.02 1159.92 1878.68 1158.21 1896.76 1144.92 1925.08 1124.46 1947.26 1113.21 1977.96 1094.8 1987.17 1089.34 2014.46 1075.71 2017.54 1069.23 2023.68 1056.61 2006.96 1038.88 2002.52 1029 1995.36 1013.31 1991.61 1000.02 1990.58 984.673 1965 980.581 1945.21 965.239 1933.61 948.192 1914.16 919.552 1900.52 866.705 1917.57 826.814 1918.94 823.745 1925.42 817.267 1926.45 812.494 1928.49 802.947 1922.69 790.332 1922.35 780.104 1920.65 727.939 1931.22 682.934 1966.36 667.25 1980.69 610.311 2031.86 591.559 2079.97 563.261 2098.05 552.691 2117.84 545.872 2138.31 538.372 2211.65 511.436 2324.58 516.551 2385.65 562.579 2411.58 582.013 2452.86 623.267 2467.53 653.271 2506.76 732.03 2503.69 863.977 2476.4 960.126 2472.64 973.08 2467.53 991.831 2460.02 1007.52 2454.91 1018.43 2438.87 1039.91 2440.57 1049.45 2442.62 1059.34 2477.42 1085.59 2484.92 1092.75 2498.23 1105.71 2523.82 1122.76 2525.86 1139.12 2528.25 1156.51 2518.36 1180.38 2513.24 1197.08 2496.87 1253 2480.49 1304.48 2461.73 1354.6L2461.73 1354.6Z" fill="#231F20" fill-rule="evenodd"/><path d="M2200.11 967.655C2202.15 964.987 2213.7 960.656 2230 968.324 2230 968.324 2210.64 971.325 2212.34 1003L2204.19 1001.33C2204.52 1001.67 2196.03 972.992 2200.11 967.655" fill="#F7E4CD" fill-rule="evenodd"/><path d="M2342 1244C2342 1248.85 2337.85 1253 2333 1253 2328.15 1253 2324 1248.85 2324 1244 2324 1239.15 2328.15 1235 2333 1235 2338.19 1235 2342 1239.15 2342 1244" fill="#1D1919" fill-rule="evenodd"/><path d="M2350 1285.5C2350 1290.08 2346.08 1294 2341.5 1294 2336.92 1294 2333 1290.08 2333 1285.5 2333 1280.92 2336.92 1277 2341.5 1277 2346.41 1277 2350 1280.6 2350 1285.5" fill="#1D1919" fill-rule="evenodd"/></g></svg>