<svg xmlns="http://www.w3.org/2000/svg" viewBox="0 0 333334 249859" shape-rendering="geometricPrecision" text-rendering="geometricPrecision" image-rendering="optimizeQuality" fill-rule="evenodd" clip-rule="evenodd"><path d="M286950 143476c-11655 66-21747 2865-30211 7033-3125-6186-6250-11591-6771-15626-586-4688-1302-7554-586-13152 716-5600 3971-13543 3971-14195-66-586-717-3451-7422-3516-6706-65-12501 1302-13152 3060s-1954 5795-2800 9962c-1172 6120-13413 27802-20379 39196-2279-4427-4232-8334-4624-11460-585-4687-1302-7553-585-13152 717-5600 3972-13543 3972-14194-65-586-717-3451-7422-3516-6707-65-12501 1302-13152 3060s-1367 5925-2800 9962c-1368 4037-17645 40238-21878 49679-2148 4818-4036 8659-5404 11264-1367 2604-65 195-196 456-1172 2214-1823 3451-1823 3451v66c-912 1628-1888 3190-2345 3190-326 0-976-4362 130-10352 2409-12567 8269-32165 8205-32881 0-326 1106-3777-3777-5534-4753-1758-6445 1172-6837 1172-391 0-716 1042-716 1042s5274-22072-10092-22072c-9636 0-22919 10483-29495 20054-4167 2279-13022 7096-22398 12241-3581 1953-7292 4037-10808 5925l-715-783c-18621-19859-53065-33922-51632-60617 521-9702 3907-35290 66152-66282 50981-25393 91805-18426 98901-2930 10092 22137-21812 63287-74811 69212-20184 2279-30798-5534-33467-8464-2800-3060-3190-3191-4232-2604-1693 911-651 3646 0 5274 1563 4102 8074 11395 19142 15041 9701 3190 33402 4948 62050-6120 32099-12436 57166-46944 49809-75788-7488-29365-56190-39001-102223-22658-27412 9767-57102 25002-78458 44991C2678 76611-1359 97316 334 105910c5926 30667 48181 50656 65110 65436-846 455-1628 911-2344 1302-8464 4166-40694 21030-48767 38870-9115 20184 1432 34704 8464 36658 21747 6056 44015-4818 56060-22723 11980-17905 10548-41149 5013-51762l-196-391 6641-3907c4298-2539 8530-4883 12241-6902-2083 5665-3581 12371-4362 22137-911 11460 3776 26304 9962 32164 2735 2539 5990 2604 8009 2604 7162 0 10417-5926 13998-13022 4428-8660 8334-18687 8334-18687s-4883 27151 8464 27151c4883 0 9767-6316 11980-9571v65s130-196 391-651c270-399 537-821 781-1237v-130c1953-3385 6315-11133 12826-23960 8399-16538 16473-37243 16473-37243s781 5079 3191 13413c1431 4949 4557 10353 6966 15626-1954 2735-3125 4298-3125 4298l65 65c-1562 2084-3320 4298-5143 6511-6641 7943-14585 16995-15626 19599-1237 3059-977 5338 1432 7162 1758 1302 4883 1562 8204 1302 5990-391 10157-1888 12241-2800 3256-1172 6967-2930 10548-5534 6511-4817 10483-11654 10092-20769-195-5013-1823-9962-3841-14650 586-846 1172-1694 1758-2605 10287-15041 18231-31578 18231-31578s781 5078 3191 13413c1236 4232 3711 8856 5925 13413-9636 7878-15691 16993-17775 22983-3842 11069-846 16082 4818 17254 2539 521 6185-651 8919-1823 3386-1107 7488-2996 11265-5795 6511-4818 12762-11524 12436-20574-196-4167-1302-8269-2800-12176 8204-3386 18816-5339 32295-3711 28974 3386 34704 21486 33598 29039-1107 7554-7162 11720-9181 13022-2019 1237-2670 1693-2474 2604 261 1368 1172 1302 2930 1043 2409-391 15236-6185 15757-20119 781-17908-16213-37441-46358-37246v1zM63493 218808c-9571 10483-23049 14455-28778 11069-6186-3581-3777-19012 8008-30146 7162-6771 16473-13022 22593-16863 1367-846 3451-2083 5925-3581 391-260 651-391 651-391 456-260 977-586 1498-911 4362 15887 195 29820-9897 40824zm69993-47595c-3321 8139-10353 29039-14585 27867-3647-977-5860-16798-717-32425 2604-7879 8139-17254 11394-20901 5275-5860 11004-7813 12437-5404 1693 3126-6446 25784-8529 30863zm57752 27607c-1432 717-2735 1237-3320 847-456-261 585-1237 585-1237s7227-7748 10092-11329c1628-2083 3581-4492 5665-7227v781c1 9375-8985 15626-13021 18165zm44535-10157c-1042-781-911-3191 2604-10743 1368-2995 4493-8009 9896-12762 651 1954 1043 3841 977 5600-65 11720-8398 16082-13478 17905z" fill="#cf649a"/></svg>